<svg width="637" height="112" viewBox="0 0 637 112" fill="none" xmlns="http://www.w3.org/2000/svg">
<rect width="637" height="112" fill="#F5F5F5"/>
<path id= "path-to-animate" d="M9.00001 8C12.9438 12.8202 11.2997 23.7033 10.7778 29.4444C9.95152 38.5334 9.3091 46.6838 7.00001 55.5556C4.35019 65.7365 -0.219 96.8302 3.22223 86.8889C5.74079 79.6131 6.07901 71.8979 8.55556 64.7778C10.0072 60.6044 11.2535 55.137 12.2222 50.7778C13.8643 43.3883 19.0124 29.2772 26.2222 26C31.8508 23.4415 36.9625 19.7166 42.5556 17C49.7603 13.5006 38.3285 25.6723 37 27.2222C30.8738 34.3695 23.298 38.5689 17.7778 46C15.7816 48.6872 11.9385 49.3591 12 53.1111C12.1775 63.9389 23.4965 73.9335 31.2222 80.5556C34.8085 83.6295 44.1253 86.893 45.7778 91.6667C46.4531 93.6176 46.9198 99.4009 48 94" stroke="black" stroke-width="3" stroke-linecap="round"/>
<path id="path-to-animate" d="M71 94V93" stroke="black" stroke-width="3" stroke-linecap="round"/>
<path id="path-to-animate" d="M431 97C438.51 97 447.601 87.4894 453.444 83.7778C459.612 79.8606 464.825 75.2087 470.444 70.6111C473.253 68.3133 469.921 79.8916 469.556 80.7778C466.615 87.9058 465.221 95.4515 462.556 102.722C460.451 108.462 462.879 96.4297 463.444 95C466.147 88.1674 473.639 67.5043 477.444 85.4445C477.984 87.9897 478.335 94.8906 480.222 96.7778C481.552 98.1078 485.034 88.0913 485.5 87.0556C486.771 84.2319 490.717 79.5245 494 79.0556C507.022 77.1953 505 89.6156 505 99C505 102.245 505.686 103.169 509.278 102.944C518.543 102.365 528.935 100.131 537.667 97.1111C550.732 92.5916 563.115 85.465 576.389 81.6111C578.946 80.8688 582.43 80.375 584.778 82C587.125 83.6251 587 86.4682 587 89C587 93.7636 579.182 86.6784 577.778 85.7778C570.171 80.8993 558.412 77.0542 552.111 86.0556C550.703 88.0677 549.962 94.5537 551.444 96.7778C553.836 100.366 562.029 99.1138 565.5 98.9445C575.802 98.4419 583.437 91.2502 587.944 82.6111C591.06 76.6405 587.338 78.8026 584.333 82.8889C578.8 90.4144 578 96.9433 578 105.889C578 114.866 593.81 105.044 597.333 103.444C609.758 97.8032 622.753 94.1233 635 88" stroke="black" stroke-width="3" stroke-linecap="round"/>
<path id="path-to-animate" d="M144 15C131.128 15 112.827 13.9496 110.222 30.5556C108.81 39.5559 118.367 41.7445 125.778 42C127.766 42.0685 130.315 42.3908 132.222 41.7778C138.15 39.8724 130.955 42.5966 128.889 44C122.176 48.5594 117.491 57.082 115 64.5556C111.943 73.7269 110.218 90.5253 117.667 98.2222C128.234 109.141 135.291 103.355 146 98" stroke="black" stroke-width="3" stroke-linecap="round"/>
<path id="path-to-animate" d="M161 107H160" stroke="black" stroke-width="3" stroke-linecap="round"/>
<path id="path-to-animate" d="M220 33C221.925 32.3583 223.675 34.7144 225 35.7778C228.072 38.244 231.404 39.6857 235 41.2222C245.484 45.7017 254.981 49.1837 266.556 49C277.119 48.8323 286.344 41.5328 293.778 34.5556C301.133 27.6518 303 20.6618 303 10.8889C303 8.68271 303.647 1.8862 299.778 2.00001C288.437 2.33358 279.076 11.1671 271.778 18.8889C258.351 33.0939 259 48.887 259 67.1111C259 76.229 257.838 87.0715 254.444 95.5556C252.765 99.754 254.99 105.851 248.333 100.556C243.754 96.9125 239.234 94.5446 239 88.2222C238.845 84.0397 241.134 79.722 245.667 78.7778C252.981 77.254 264.568 78.0993 271.444 81.4445C278.527 84.8902 278.94 93.6909 282.778 99.7778C287.335 107.007 299.093 109.927 307 106.333C314.437 102.953 317 92.6342 317 85.2222C317 69.8655 293.812 96.9376 307.444 101.222C313.571 103.148 317.749 102 323.778 102C328.149 102 331.699 100 336 100" stroke="black" stroke-width="3" stroke-linecap="round"/>
<path id="path-to-animate" d="M332 101C333.109 97.674 338.252 96.7403 341 95C346.565 91.4757 352.771 88.0065 357.444 83.3333C368.027 72.7507 373 55.2209 373 40.6111C373 35.421 373.348 20.9237 368 17.7778C360.66 13.4598 355.089 37.3907 354.222 41.4444C350.199 60.2662 353 81.5991 353 100.889C353 104.252 353.841 97.66 354.111 96.8889C355.626 92.5607 356.635 87.1645 359 83.2222C361.271 79.4364 362.464 77 367 77C381.92 77 370.328 105.786 376.722 106.278C379.946 106.526 383.901 100.458 386 98.5555C391.37 93.6887 395.162 88.3737 399 82.2222C407.519 68.5677 416.502 55.8462 421 40.2222C422.58 34.7342 424.23 27.3971 422.944 21.6111C422.523 19.7166 418.51 32.165 418.444 32.5555C416.275 45.506 417 58.9208 417 72C417 76.035 414.514 96.8305 420.444 97C424.836 97.1255 428.793 97.0516 433 96" stroke="black" stroke-width="3" stroke-linecap="round"/>
<path id="path-to-animate" d="M405 51C409.697 50.7391 413.783 48.8661 418.667 49.2222C420.934 49.3876 427.922 48.8448 429 51" stroke="black" stroke-width="3" stroke-linecap="round"/>
</svg>
