<?xml version="1.0" encoding="UTF-8" standalone="no" ?>
<!DOCTYPE svg PUBLIC "-//W3C//DTD SVG 1.1//EN" "http://www.w3.org/Graphics/SVG/1.1/DTD/svg11.dtd">
<svg xmlns="http://www.w3.org/2000/svg" xmlns:xlink="http://www.w3.org/1999/xlink" version="1.1" width="640" height="640" viewBox="0 0 640 640" xml:space="preserve">
<desc>Created with Fabric.js 5.3.0</desc>
<defs>
</defs>
<g transform="matrix(1 0 0 1 258.1420765027 156.6775956284)" id="Rdl2QrAKxgyH5_kiIvMnc"  >
<path style="stroke: rgb(0,0,0); stroke-width: 1; stroke-dasharray: none; stroke-linecap: round; stroke-dashoffset: 0; stroke-linejoin: round; stroke-miterlimit: 10; fill: none; fill-rule: nonzero; opacity: 1;"  transform=" translate(-258.1420765027, -156.6775956284)" d="M 255.6512732240437 123.8022786885246 Q 255.6502732240437 123.8032786885246 253.90163934426226 123.8032786885246 Q 252.15300546448083 123.8032786885246 250.05464480874315 124.15300546448088 Q 247.95628415300547 124.50273224043717 245.85792349726776 125.90163934426229 Q 243.75956284153006 127.30054644808742 241.31147540983605 128.69945355191257 Q 238.86338797814204 130.0983606557377 236.06557377049177 131.84699453551912 Q 233.2677595628415 133.59562841530055 231.16939890710378 136.04371584699453 Q 229.07103825136608 138.49180327868854 227.32240437158467 143.73770491803282 Q 225.57377049180326 148.98360655737707 225.224043715847 152.8306010928962 Q 224.87431693989072 156.6775956284153 225.224043715847 161.5737704918033 Q 225.57377049180326 166.46994535519127 227.32240437158467 171.01639344262298 Q 229.07103825136608 175.56284153005467 231.16939890710378 179.06010928961751 Q 233.2677595628415 182.55737704918033 235.3661202185792 185.7049180327869 Q 237.4644808743169 188.85245901639345 240.26229508196718 190.60109289617486 Q 243.06010928961746 192.3497267759563 245.85792349726773 193.39890710382514 Q 248.655737704918 194.448087431694 250.75409836065572 195.14754098360658 Q 252.85245901639342 195.84699453551914 254.60109289617483 196.19672131147541 Q 256.34972677595624 196.5464480874317 258.7978142076503 196.5464480874317 Q 261.24590163934425 196.5464480874317 263.344262295082 196.5464480874317 Q 265.44262295081967 196.5464480874317 269.2896174863388 195.49726775956287 Q 273.1366120218579 194.448087431694 275.9344262295082 191.65027322404373 Q 278.73224043715845 188.85245901639345 281.87978142076497 184.65573770491804 Q 285.02732240437155 180.45901639344262 287.1256830601093 175.91256830601094 Q 289.22404371584696 171.36612021857925 290.2732240437158 166.46994535519127 Q 291.3224043715847 161.5737704918033 291.3224043715847 156.32786885245903 Q 291.3224043715847 151.08196721311478 290.2732240437158 145.8360655737705 Q 289.22404371584696 140.59016393442624 287.4754098360655 136.39344262295083 Q 285.72677595628414 132.19672131147541 282.57923497267757 128.3497267759563 Q 279.431693989071 124.50273224043717 275.5846994535519 122.40437158469946 Q 271.73770491803276 120.30601092896175 268.24043715846994 119.2568306010929 Q 264.74316939890707 118.20765027322405 260.89617486338796 117.50819672131148 Q 257.04918032786884 116.80874316939891 252.50273224043715 116.80874316939891 Q 247.95628415300547 116.80874316939891 244.10928961748633 117.1584699453552 Q 240.26229508196718 117.50819672131148 237.4644808743169 118.20765027322405 Q 234.66666666666663 118.90710382513662 233.6174863387978 119.60655737704919 Q 232.56830601092895 120.30601092896175 231.86885245901638 120.65573770491804 Q 231.1693989071038 121.00546448087432 230.8196721311475 121.00546448087432 Q 230.46994535519121 121.00546448087432 230.46994535519121 122.75409836065575 Q 230.46994535519121 124.50273224043717 230.46994535519121 130.0983606557377 L 230.46994535519121 135.69498907103826" stroke-linecap="round" />
</g>
<g transform="matrix(1 0 0 1 256.6989535519 242.0714325903)" id="0NShMmv_DzE6wcv9vdO7I"  >
<path style="stroke: rgb(0,0,0); stroke-width: 1; stroke-dasharray: none; stroke-linecap: round; stroke-dashoffset: 0; stroke-linejoin: round; stroke-miterlimit: 10; fill: none; fill-rule: nonzero; opacity: 1;"  transform=" translate(-256.6989535519, -242.0714325903)" d="M 253.55091256830596 197.24490163934428 Q 253.55191256830597 197.24590163934428 253.55191256830597 196.896174863388 Q 253.55191256830597 196.5464480874317 254.25136612021853 197.24590163934428 Q 254.9508196721311 197.94535519125685 255.65027322404367 198.64480874316942 Q 256.34972677595624 199.344262295082 257.3989071038251 205.2896174863388 Q 258.448087431694 211.23497267759564 258.448087431694 213.6830601092896 Q 258.448087431694 216.13114754098362 258.448087431694 223.47540983606558 Q 258.448087431694 230.81967213114754 258.448087431694 236.4153005464481 Q 258.448087431694 242.01092896174865 258.448087431694 248.30601092896177 Q 258.448087431694 254.6010928961749 258.448087431694 259.4972677595629 Q 258.448087431694 264.39344262295083 259.1475409836065 269.2896174863388 Q 259.8469945355191 274.18579234972674 259.8469945355191 277.6830601092896 Q 259.8469945355191 281.18032786885243 259.8469945355191 283.27868852459017 Q 259.8469945355191 285.37704918032784 259.8469945355191 286.4262295081967 L 259.8469945355191 287.47640983606556" stroke-linecap="round" />
</g>
<g transform="matrix(1 0 0 1 279.4311939891 319.1594829373)" id="441F07aHA7VeDv9919P98"  >
<path style="stroke: rgb(0,0,0); stroke-width: 1; stroke-dasharray: none; stroke-linecap: round; stroke-dashoffset: 0; stroke-linejoin: round; stroke-miterlimit: 10; fill: none; fill-rule: nonzero; opacity: 1;"  transform=" translate(-279.4311939891, -319.1594829373)" d="M 259.84599453551914 289.5727704918033 Q 259.8469945355191 289.57377049180326 260.5464480874317 290.2732240437158 Q 261.24590163934425 290.9726775956284 263.344262295082 293.7704918032787 Q 265.44262295081967 296.56830601092895 268.5901639344262 302.1639344262295 Q 271.73770491803276 307.75956284153006 275.2349726775956 313.70491803278685 Q 278.73224043715845 319.6502732240437 283.9781420765027 327.344262295082 Q 289.22404371584696 335.0382513661202 290.6229508196721 337.1366120218579 Q 292.02185792349724 339.23497267759564 294.1202185792349 342.03278688524586 Q 296.21857923497265 344.83060109289613 297.6174863387978 346.9289617486338 Q 299.0163934426229 349.02732240437155 299.0163934426229 348.327868852459 L 299.0163934426229 347.62741530054643" stroke-linecap="round" />
</g>
<g transform="matrix(1 0 0 1 235.7163469945 327.2348776641)" id="nXTfaGS2wtG3c6KFOtvzT"  >
<path style="stroke: rgb(0,0,0); stroke-width: 1; stroke-dasharray: none; stroke-linecap: round; stroke-dashoffset: 0; stroke-linejoin: round; stroke-miterlimit: 10; fill: none; fill-rule: nonzero; opacity: 1;"  transform=" translate(-235.7163469945, -327.2348776641)" d="M 259.1485409836065 282.5782349726776 Q 259.1475409836065 282.57923497267757 259.1475409836065 284.327868852459 Q 259.1475409836065 286.07650273224044 258.0983606557377 288.1748633879781 Q 257.04918032786884 290.27322404371586 255.6502732240437 293.42076502732243 Q 254.25136612021856 296.56830601092895 250.75409836065572 303.21311475409834 Q 247.25683060109287 309.85792349726773 243.40983606557376 315.4535519125683 Q 239.56284153005464 321.04918032786884 235.7158469945355 327.69398907103823 Q 231.86885245901635 334.3387978142076 228.02185792349724 340.983606557377 Q 224.17486338797812 347.6284153005464 221.02732240437157 353.22404371584696 Q 217.87978142076503 358.8196721311475 215.78142076502732 363.0163934426229 Q 213.6830601092896 367.21311475409834 212.98360655737704 368.9617486338798 Q 212.28415300546447 370.71038251366116 212.28415300546447 371.06010928961746 Q 212.28415300546447 371.40983606557376 212.28415300546447 371.75956284153006 Q 212.28415300546447 372.1092896174863 214.73224043715845 367.21311475409834 L 217.18132786885243 362.3159398907104" stroke-linecap="round" />
</g>
<g transform="matrix(1 0 0 1 274.5355191257 256)" id="BXc2O4UailrI2ZBhmxwSF"  >
<path style="stroke: rgb(0,0,0); stroke-width: 1; stroke-dasharray: none; stroke-linecap: round; stroke-dashoffset: 0; stroke-linejoin: round; stroke-miterlimit: 10; fill: none; fill-rule: nonzero; opacity: 1;"  transform=" translate(-274.5355191257, -256)" d="M 260.5454480874317 237.81320765027323 Q 260.54644808743166 237.81420765027323 261.59562841530055 238.8633879781421 Q 262.6448087431694 239.91256830601094 264.74316939890707 242.36065573770492 Q 266.8415300546448 244.80874316939892 269.2896174863388 248.65573770491804 Q 271.73770491803276 252.50273224043715 274.53551912568304 256 Q 277.3333333333333 259.4972677595628 279.7814207650273 262.6448087431694 Q 282.22950819672127 265.79234972677597 283.9781420765027 267.89071038251365 Q 285.72677595628414 269.9890710382513 287.1256830601093 272.08743169398906 L 288.5255901639344 274.1867923497267" stroke-linecap="round" />
</g>
<g transform="matrix(1 0 0 1 234.6666666667 264.7431693989)" id="UI9C6nmigM_QUtix1KJ_v"  >
<path style="stroke: rgb(0,0,0); stroke-width: 1; stroke-dasharray: none; stroke-linecap: round; stroke-dashoffset: 0; stroke-linejoin: round; stroke-miterlimit: 10; fill: none; fill-rule: nonzero; opacity: 1;"  transform=" translate(-234.6666666667, -264.7431693989)" d="M 254.9518196721311 235.71484699453552 Q 254.9508196721311 235.71584699453553 254.60109289617483 235.71584699453553 Q 254.25136612021856 235.71584699453553 253.2021857923497 237.11475409836066 Q 252.15300546448083 238.5136612021858 249.70491803278685 242.36065573770492 Q 247.25683060109287 246.20765027322406 245.85792349726773 247.95628415300547 Q 244.4590163934426 249.70491803278688 238.16393442622947 257.04918032786884 Q 231.86885245901635 264.39344262295083 227.67213114754097 269.9890710382514 Q 223.47540983606558 275.5846994535519 220.327868852459 280.1311475409836 Q 217.18032786885243 284.6775956284153 216.1311475409836 287.8251366120219 Q 215.08196721311475 290.9726775956284 214.73224043715845 292.37158469945354 L 214.38151366120215 293.77149180327865" stroke-linecap="round" />
</g>
<g transform="matrix(1 0 0 1 266.1415765027 177.3109754098)" id="PL4_mvy6hkb7BRK1Cnne7"  >
<path style="stroke: rgb(0,0,0); stroke-width: 1; stroke-dasharray: none; stroke-linecap: round; stroke-dashoffset: 0; stroke-linejoin: round; stroke-miterlimit: 10; fill: none; fill-rule: nonzero; opacity: 1;"  transform=" translate(-266.1415765027, -177.3109754098)" d="M 250.05364480874314 174.8623879781421 Q 250.05464480874315 174.8633879781421 250.40437158469945 175.56284153005467 Q 250.75409836065575 176.26229508196724 252.50273224043715 176.9617486338798 Q 254.25136612021856 177.66120218579238 257.3989071038251 179.06010928961751 Q 260.54644808743166 180.45901639344262 261.59562841530055 180.8087431693989 Q 262.6448087431694 181.1584699453552 264.39344262295083 181.5081967213115 Q 266.1420765027322 181.85792349726776 267.54098360655735 181.85792349726776 Q 268.9398907103825 181.85792349726776 270.6885245901639 181.85792349726776 Q 272.43715846994536 181.85792349726776 274.53551912568304 181.85792349726776 Q 276.6338797814207 181.85792349726776 277.6830601092896 181.1584699453552 Q 278.73224043715845 180.45901639344262 279.43169398907105 180.45901639344262 Q 280.1311475409836 180.45901639344262 280.4808743169399 180.10928961748635 Q 280.83060109289613 179.75956284153006 281.18032786885243 179.40983606557376 Q 281.53005464480873 179.0601092896175 281.87978142076497 178.71038251366122 Q 282.22950819672127 178.36065573770492 282.22950819672127 177.31147540983608 Q 282.22950819672127 176.26229508196724 282.22950819672127 174.5136612021858 L 282.22950819672127 172.7640273224044" stroke-linecap="round" />
</g>
<g transform="matrix(1 0 0 1 258.7978142077 144.4376584699)" id="WpVm5PLoBTptohB5onrs-"  >
<path style="stroke: rgb(0,0,0); stroke-width: 1; stroke-dasharray: none; stroke-linecap: round; stroke-dashoffset: 0; stroke-linejoin: round; stroke-miterlimit: 10; fill: none; fill-rule: nonzero; opacity: 1;"  transform=" translate(-258.7978142077, -144.4376584699)" d="M 261.24690163934423 144.0874316939891 Q 261.24590163934425 144.0874316939891 260.89617486338796 144.0874316939891 Q 260.54644808743166 144.0874316939891 259.8469945355191 144.0874316939891 Q 259.1475409836065 144.0874316939891 257.7486338797814 144.43715846994536 L 256.34872677595627 144.78788524590166" stroke-linecap="round" />
</g>
<g transform="matrix(1 0 0 1 269.9890710383 146.8852459016)" id="0U0vfNF_CsMuqJlGjyRXv"  >
<path style="stroke: rgb(0,0,0); stroke-width: 1; stroke-dasharray: none; stroke-linecap: round; stroke-dashoffset: 0; stroke-linejoin: round; stroke-miterlimit: 10; fill: none; fill-rule: nonzero; opacity: 1;"  transform=" translate(-269.9890710383, -146.8852459016)" d="M 269.6383442622951 146.88524590163937 Q 269.6393442622951 146.88524590163937 269.9890710382514 146.88524590163937 L 270.3397978142076 146.88524590163937" stroke-linecap="round" />
</g>
<g transform="matrix(1 0 0 1 273.4863387978 148.2836530055)" id="QKXb_b3b-qdWIsM8bJCk4"  >
<path style="stroke: rgb(0,0,0); stroke-width: 1; stroke-dasharray: none; stroke-linecap: round; stroke-dashoffset: 0; stroke-linejoin: round; stroke-miterlimit: 10; fill: none; fill-rule: nonzero; opacity: 1;"  transform=" translate(-273.4863387978, -148.2836530055)" d="M 270.33779781420765 147.58369945355193 Q 270.3387978142076 147.58469945355193 271.38797814207646 147.93442622950823 Q 272.43715846994536 148.2841530054645 273.1366120218579 148.63387978142077 Q 273.8360655737705 148.98360655737707 275.2349726775956 148.98360655737707 L 276.6348797814207 148.98360655737707" stroke-linecap="round" />
</g>
<g transform="matrix(1 0 0 1 266.8415300546 165.0710382514)" id="nKmwA6-qYud-nWmHvrZdN"  >
<path style="stroke: rgb(0,0,0); stroke-width: 1; stroke-dasharray: none; stroke-linecap: round; stroke-dashoffset: 0; stroke-linejoin: round; stroke-miterlimit: 10; fill: none; fill-rule: nonzero; opacity: 1;"  transform=" translate(-266.8415300546, -165.0710382514)" d="M 264.04271584699455 159.47440983606558 Q 264.04371584699453 159.47540983606558 264.74316939890707 159.47540983606558 Q 265.44262295081967 159.47540983606558 265.7923497267759 160.87431693989072 Q 266.1420765027322 162.27322404371586 266.84153005464475 163.3224043715847 Q 267.54098360655735 164.37158469945356 267.89071038251365 165.42076502732243 Q 268.24043715846994 166.46994535519127 268.24043715846994 166.81967213114757 Q 268.24043715846994 167.16939890710384 268.5901639344262 167.8688524590164 Q 268.9398907103825 168.56830601092898 269.2896174863388 169.61748633879785 L 269.64034426229506 170.6676666666667" stroke-linecap="round" />
</g>
</svg>