<svg width="675" height="163" viewBox="0 0 675 163" fill="none" xmlns="http://www.w3.org/2000/svg">
<path id="path-to-animate2" d="M1 162L21 82M76 162L58.5 82M58.5 82L41 2L21 82M58.5 82H21M158 2L159.656 55L162.219 137L162.812 156M163 162L162.812 156M162.812 156L138 162L114 156L104 143M201 162L230.5 82M290 162L275 82M275 82L260 2L230.5 82M275 82H230.5M484 2L479 3.42857M479 3.42857L428 18L395 55V103L422 143L484 156L553 143L577 103V55L553 18L479 3.42857ZM612 156V3.42857L674 156V3.42857M364 3.42857V122L357 156L337 162H320L310 137" stroke="black"/>
</svg>
